<svg width="200" height="200" viewBox="0 0 200 200" fill="none" xmlns="http://www.w3.org/2000/svg">
<path d="M79.4254 33.1765C78.0553 36.8093 77.9232 40.1233 79.1303 40.5786C80.3375 41.0338 82.4267 38.458 83.7968 34.8252C85.1669 31.1925 85.299 27.8785 84.0919 27.4232C82.8847 26.9679 80.7954 29.5438 79.4254 33.1765Z" fill="black"/>
<path d="M148.551 68.7809C146.18 71.9895 132.632 83.6398 126.177 89.1223C125.537 87.9141 124.945 86.8031 124.425 85.8301C124.777 85.5633 125.127 85.2922 125.472 85.0145C126.471 84.209 127.438 83.3602 128.382 82.4797C129.038 81.9051 129.67 81.3215 130.282 80.7328C130.894 80.1434 131.488 79.5477 132.07 78.9449C134.582 76.3977 136.463 73.7633 139.041 71.2629C139.041 71.2629 139.345 70.7879 139.818 69.9207C143.99 60.5914 142.484 50.0539 140.194 40.3961C139.859 39.2543 139.53 38.0988 139.201 36.9355C136.236 26.4676 133.18 15.3836 123.956 8.18828C123.022 7.40078 122.033 6.67461 120.997 6.00781C115.814 2.67383 109.466 0.830859 103.17 0.155859C102.108 0.059375 101.039 0 99.9582 0C92.7481 0 86.1785 2.73984 81.2328 7.23477C80.2426 8.13242 79.3168 9.10039 78.4223 10.1242C74.843 13.9023 71.9125 18.277 69.9355 22.9805C69.4414 24.1563 69.007 25.3527 68.6363 26.5664C68.1176 27.8238 67.6848 29.0906 67.3102 30.3719C66.7738 31.7 66.3102 33.0387 65.9145 34.3852C65.5184 35.7316 65.1902 37.0863 64.9258 38.4473C64.6465 39.6027 64.3848 40.7742 64.1473 41.9566C63.9102 43.1402 63.6969 44.3348 63.5113 45.5422C62.3676 49.3039 61.8156 53.0668 61.8512 56.7133C61.8629 57.9285 61.9402 59.1309 62.082 60.3164C61.6996 71.2238 68.3484 79.4477 76.8684 85.2461C76.3883 85.3496 75.4687 87.0129 74.3211 89.5445C68.0937 84.2629 53.8832 72.0738 51.4488 68.7805C48.3145 64.5398 39.6484 75.4184 41.1234 83.1621C42.3301 89.4988 57.8391 110.139 63.4359 117.432C63.2613 117.86 63.1289 118.163 63.048 118.31C62.2137 119.832 61.0781 127.889 60.2516 132.365C59.3398 133.372 45.3223 149.127 49.6043 160.902C53.2371 170.892 56.7078 179.039 57.8348 181.638C56.6895 182.961 55.9418 184.497 55.718 186.191C54.8758 192.568 59.6266 199.897 71.009 199.96C86.6043 200.046 88.5098 197.012 89.3516 190.634C89.6492 188.382 88.9879 186.157 87.5996 184.167C75.9293 177.056 66.2426 161.676 66.2426 143.847C66.2426 119.255 81.9441 99.3184 101.314 99.3184C120.683 99.3184 136.385 119.255 136.385 143.847C136.385 161.671 126.26 177.046 114.672 184.161C116.377 183.236 117.838 182.269 118.901 181.508C115.907 184.047 114.256 187.31 114.695 190.633C115.537 197.011 117.442 200.046 133.037 199.96C144.42 199.897 149.171 192.568 148.329 186.19C148.127 184.658 147.495 183.254 146.529 182.02C147.435 179.945 151.091 171.451 154.927 160.902C159.352 148.733 144.233 132.313 144.233 132.313C144.233 132.313 144.186 132.462 144.097 132.737C143.198 128.255 140.752 120.305 138.553 114.445C144.985 106.095 157.776 88.9371 158.876 83.1613C160.352 75.4188 151.686 64.5402 148.551 68.7809ZM63.8723 191.327C63.5789 193.548 61.7453 195.138 59.777 194.878C57.8082 194.617 56.4504 192.606 56.7434 190.385C57.0371 188.164 58.8707 186.575 60.8391 186.834C62.8078 187.095 64.1656 189.106 63.8723 191.327ZM79.1875 190.84C79.5145 188.366 81.9688 186.651 84.6691 187.008C87.3703 187.364 89.2953 189.659 88.9684 192.132C88.6414 194.605 86.1867 196.321 83.4863 195.964C80.7852 195.607 78.8609 193.313 79.1875 190.84ZM71.8984 188.296C75.0277 188.709 77.2996 191.05 76.973 193.523C76.6465 195.996 73.8445 197.666 70.7148 197.253C67.5848 196.839 65.3129 194.499 65.6398 192.026C65.9668 189.552 68.7691 187.882 71.8984 188.296ZM124.832 22.2484C128.396 21.6953 130.486 28.3332 131.9 31.652C133.313 34.9707 134.419 39.3957 135.71 45.9723C137.001 52.5484 131.838 55.0684 127.413 54.884C122.988 54.6996 120.775 43.268 119.484 33.4957C118.194 23.7234 124.832 22.2484 124.832 22.2484ZM113.625 28.752L114.67 22.5082C114.735 22.1234 115.099 21.8637 115.484 21.9281L115.545 21.9379C115.93 22.0023 116.189 22.3668 116.125 22.7516L115.08 28.9953C115.015 29.3801 114.651 29.6398 114.266 29.5754L114.205 29.5652C113.82 29.5008 113.561 29.1367 113.625 28.752ZM110.234 78.0492L113.096 74.2035C113.279 73.9582 113.625 73.9078 113.871 74.0898C114.115 74.2719 114.166 74.6188 113.984 74.8637L111.122 78.7094C110.939 78.9543 110.593 79.0051 110.348 78.823C110.103 78.6406 110.052 78.2941 110.234 78.0492ZM91.6391 74.2031L94.5012 78.0488C94.6832 78.2937 94.632 78.6406 94.3875 78.8227C94.1422 79.0047 93.7961 78.9543 93.6137 78.709L90.752 74.8633C90.5691 74.618 90.6203 74.2715 90.8648 74.0895C91.1098 73.9074 91.4566 73.9582 91.6391 74.2031ZM89.1906 21.9379L89.2516 21.9281C89.6367 21.8637 90.0008 22.1234 90.0652 22.5082L91.1102 28.752C91.1746 29.1367 90.9148 29.5008 90.5305 29.5656L90.4688 29.5758C90.0844 29.6402 89.7203 29.3805 89.6559 28.9957L88.6109 22.752C88.5461 22.3664 88.8055 22.0023 89.1906 21.9379ZM69.0254 45.9719C70.316 39.3957 71.4219 34.9703 72.8359 31.6516C74.2496 28.3324 76.3391 21.6949 79.9039 22.248C79.9039 22.248 86.5418 23.7234 85.2508 33.4953C83.9602 43.2676 81.7473 54.6992 77.3223 54.8836C72.8969 55.0684 67.7348 52.5484 69.0254 45.9719ZM102.368 87.6441C102.066 87.6336 101.774 87.6117 101.488 87.5773C92.7484 86.5309 81.1828 82.3113 77.0645 79.3797C76.8156 79.2023 76.7574 78.857 76.9348 78.6082C77.1121 78.3594 77.457 78.3012 77.707 78.4781C81.6363 81.2758 93.1793 85.4684 101.62 86.4785C109.961 87.4742 126.355 77.1859 126.52 77.082C126.778 76.9191 127.12 76.9957 127.283 77.2539C127.447 77.5121 127.37 77.8535 127.111 78.0172C126.447 78.4367 111.266 87.968 102.368 87.6441ZM143.208 186.834C145.176 186.575 147.01 188.164 147.304 190.385C147.597 192.606 146.239 194.617 144.27 194.878C142.302 195.138 140.468 193.548 140.175 191.327C139.882 189.106 141.239 187.095 143.208 186.834ZM120.561 195.964C117.861 196.321 115.406 194.605 115.079 192.132C114.752 189.659 116.677 187.364 119.378 187.008C122.079 186.651 124.533 188.366 124.86 190.84C125.187 193.313 123.262 195.607 120.561 195.964ZM133.333 197.253C130.203 197.666 127.401 195.996 127.075 193.523C126.748 191.05 129.02 188.709 132.149 188.296C135.279 187.882 138.08 189.552 138.407 192.026C138.734 194.499 136.462 196.839 133.333 197.253Z" fill="black"/>
<path d="M120.931 34.8253C122.3 38.4581 124.389 41.0342 125.596 40.5792C126.803 40.1242 126.67 36.8104 125.301 33.1777C123.931 29.5449 121.842 26.9688 120.636 27.4238C119.429 27.8788 119.561 31.1926 120.931 34.8253Z" fill="black"/>
<path d="M103.483 188.003C93.1855 188.427 84.5504 184.456 80.4234 180.323C80.432 180.378 80.4395 180.04 80.4477 180.094C81.7594 181.077 85.8523 183.362 87.5996 184.168C92.0262 186.866 96.7371 188.376 101.314 188.376C105.662 188.376 110.272 186.863 114.672 184.162C111.51 185.876 107.37 187.843 103.483 188.003Z" fill="black"/>
<path d="M72.1266 157.605C71.1133 156.058 70.025 154.536 68.8551 153.072C69.9039 154.611 71.0086 156.113 72.1266 157.605Z" fill="black"/>
</svg>
