<svg width="125" height="125" viewBox="0 0 125 125" fill="none" xmlns="http://www.w3.org/2000/svg">
<g clip-path="url(#clip0_128_9)">
<path d="M62.5 83.0078C61.982 83.0078 61.4852 82.802 61.1189 82.4358C60.7526 82.0695 60.5469 81.5727 60.5469 81.0547C60.5469 69.3359 66.2012 63.3203 71.1914 57.9785C75.2637 53.623 78.7695 49.8633 78.7695 43.6328C78.7695 39.3179 77.0554 35.1796 74.0043 32.1285C70.9532 29.0774 66.8149 27.3633 62.5 27.3633C58.1851 27.3633 54.0468 29.0774 50.9957 32.1285C47.9446 35.1796 46.2305 39.3179 46.2305 43.6328C46.2305 44.1508 46.0247 44.6476 45.6584 45.0139C45.2921 45.3802 44.7953 45.5859 44.2773 45.5859C43.7593 45.5859 43.2626 45.3802 42.8963 45.0139C42.53 44.6476 42.3242 44.1508 42.3242 43.6328C42.3242 38.2819 44.4499 33.1501 48.2336 29.3664C52.0173 25.5827 57.1491 23.457 62.5 23.457C67.8509 23.457 72.9827 25.5827 76.7664 29.3664C80.5501 33.1501 82.6758 38.2819 82.6758 43.6328C82.6758 51.4453 78.291 56.1035 74.0527 60.6445C69.3359 65.6738 64.4531 70.8887 64.4531 81.0547C64.4531 81.5727 64.2474 82.0695 63.8811 82.4358C63.5148 82.802 63.018 83.0078 62.5 83.0078Z" fill="black"/>
<path d="M62.5 94.0039C62.0654 94.0039 61.6406 94.1328 61.2793 94.3742C60.9179 94.6156 60.6363 94.9588 60.47 95.3603C60.3037 95.7618 60.2602 96.2036 60.345 96.6298C60.4297 97.0561 60.639 97.4476 60.9463 97.7549C61.2536 98.0622 61.6451 98.2714 62.0713 98.3562C62.4976 98.441 62.9394 98.3975 63.3409 98.2312C63.7424 98.0649 64.0855 97.7832 64.327 97.4219C64.5684 97.0606 64.6973 96.6357 64.6973 96.2012C64.6973 95.6184 64.4658 95.0595 64.0537 94.6475C63.6416 94.2354 63.0828 94.0039 62.5 94.0039Z" fill="black"/>
<path d="M62.5 125C50.1387 125 38.055 121.334 27.7769 114.467C17.4988 107.599 9.48803 97.8381 4.75756 86.4177C0.0270801 74.9974 -1.21063 62.4307 1.20095 50.3069C3.61252 38.1831 9.56507 27.0466 18.3059 18.3059C27.0466 9.56507 38.1831 3.61252 50.3069 1.20095C62.4307 -1.21063 74.9974 0.0270801 86.4177 4.75756C97.8381 9.48803 107.599 17.4988 114.467 27.7769C121.334 38.055 125 50.1387 125 62.5C124.982 79.0705 118.391 94.9571 106.674 106.674C94.9571 118.391 79.0705 124.982 62.5 125V125ZM62.5 3.90628C50.9113 3.90628 39.5828 7.34274 29.9471 13.7811C20.3114 20.2195 12.8013 29.3706 8.36646 40.0772C3.93164 50.7838 2.77129 62.565 5.03214 73.9311C7.29299 85.2972 12.8735 95.7376 21.068 103.932C29.2625 112.127 39.7029 117.707 51.069 119.968C62.435 122.229 74.2163 121.068 84.9229 116.634C95.6295 112.199 104.781 104.689 111.219 95.053C117.657 85.4173 121.094 74.0888 121.094 62.5C121.076 46.9656 114.897 32.0725 103.912 21.088C92.9275 10.1034 78.0345 3.92437 62.5 3.90628V3.90628Z" fill="black"/>
</g>
<defs>
<clipPath id="clip0_128_9">
<rect width="125" height="125" fill="white"/>
</clipPath>
</defs>
</svg>
